# xmcd
#
# Track frame offsets: 
#        150
#        10363
#        21306
#        30742
#        43450
#        53096
#        64422
#        74310
#        86871
#        97391
#        106536
#        118728
#        128622
#        138873
#        149031
#        158092
#        168912
#        179048
#        187584
#        198344
#        208280
#        216818
#        226062
#        236308
#        246491
#        254004
#        263635
#        272620
#
# Disc length: 3760 seconds
#
# Revision: 0
# Processed by: cddbd v1.5.1PL0 Copyright (c) Steve Scherf et al.
# Submitted via: ExactAudioCopy v0.95a4
#
DISCID=a50eae1c
DTITLE=Various Artist - Louisiana Men
DYEAR=1900
DGENRE=Country
TTITLE0=Rusty and Doug with Wiley Barkdull - So Lovely Baby (First Versi
TTITLE0=on)
TTITLE1=Rusty and Doug - Why Cry For You
TTITLE2=Rusty and Doug with Wiley Barkdull - Look Around (Take A Look At
TTITLE2=Me)
TTITLE3=Rusty and Doug - Can I Be Dreaming
TTITLE4=Rusty and Doug - Honey, Honey
TTITLE5=Rusty and Doug - Your Crazy, Crazy Heart
TTITLE6=Rusty and Doug - Let's Stay Together
TTITLE7=Rusty and Doug with Wiley Barkdull - Mister Love
TTITLE8=Rusty and Doug with Wiley Barkdull - Hey, You There
TTITLE9=Rusty and Doug - I'll Understand
TTITLE10=Rusty and Doug with Carolee Cooper - Going Down The Road
TTITLE11=Rusty and Doug - You'll See
TTITLE12=Rusty and Doug - I Never Had The Blues
TTITLE13=Rusty and Doug - Love Me To Pieces
TTITLE14=Rusty and Doug - Take My Love
TTITLE15=Rusty and Doug - Dream Queen
TTITLE16=Rusty and Doug - Hey Mae
TTITLE17=Rusty and Doug - Why Don't You Love Me
TTITLE18=Rusty and Doug - Hey Sheriff
TTITLE19=Rusty and Doug with Carolee Cooper - It's Too Late
TTITLE20=Rusty and Doug - Sweet Thing (Tell Me That You Love Me)
TTITLE21=Rusty and Doug with Wiley Barkdull - We'll Do It Anyway
TTITLE22=Rusty and Doug - Never Love Again
TTITLE23=Rusty and Doug with Wiley Barkdull - Kaw-Liga
TTITLE24=Rusty and Doug - I Like You (Like This)
TTITLE25=Rusty and Doug with Wiley Barkdull - Dancing Shoes
TTITLE26=Rusty and Doug - Oh Love
TTITLE27=Rusty and Doug with Wiley Barkdull - The Love I Want
EXTD=
EXTT0=
EXTT1=
EXTT2=
EXTT3=
EXTT4=
EXTT5=
EXTT6=
EXTT7=
EXTT8=
EXTT9=
EXTT10=
EXTT11=
EXTT12=
EXTT13=
EXTT14=
EXTT15=
EXTT16=
EXTT17=
EXTT18=
EXTT19=
EXTT20=
EXTT21=
EXTT22=
EXTT23=
EXTT24=
EXTT25=
EXTT26=
EXTT27=
PLAYORDER=
